# xmcd
#
# Track frame offsets:
#	150
#	33222
#	49019
#	65871
#	92921
#	111504
#	129227
#	153549
#	170901
#	193286
#	217251
#	243531
#	264074
#
# Disc length: 3684
#
# Revision: 1
# Processed by: cddbd v1.5.1PL0 Copyright (c) Steve Scherf et al.
# Submitted via: CDex 1.50Beta7
# Normalized: r0:TDELIM( - )
#
DISCID=c70e620d
DTITLE=Gisbert Paulus - Zhe #1
DYEAR=2002
DGENRE=Blues
TTITLE0=Chris Rea - Auberge
TTITLE1=Keb' Mo' - She Just Wants To Dance
TTITLE2=Popa Chubby - Palace Of The King
TTITLE3=Anders Osborne - What'S Going On Here
TTITLE4=G. Love and Special Sauce - Sweet Sugar Mama
TTITLE5=Eric Clapton - Lay Down Sally
TTITLE6=Cassandra Wilson - Road So Clear
TTITLE7=Cassandra Wilson - Show Me Love
TTITLE8=Cassandra Wilson - Drunk As Cooter Brown
TTITLE9=Cassandra Wilson - Shelter From The Storm
TTITLE10=Cassandra Wilson - Wichita Lineman
TTITLE11=Cassandra Wilson - Only A Dream In Rio
TTITLE12=Cassandra Wilson - You Gotta Move
EXTD=YEAR: 2002
EXTT0=
EXTT1=
EXTT2=
EXTT3=
EXTT4=
EXTT5=
EXTT6=
EXTT7=
EXTT8=
EXTT9=
EXTT10=
EXTT11=
EXTT12=
PLAYORDER=
